<svg width="100%" height="100%" viewBox="0 0 17 16" fill="none" xmlns="http://www.w3.org/2000/svg">
<path fill-rule="evenodd" clip-rule="evenodd" d="M10.4335 1.59998C10.61 1.59992 10.7817 1.65827 10.9216 1.76593C11.0615 1.87358 11.1619 2.02451 11.2071 2.19518L12.1503 5.75997L14.8335 7.30718C14.9551 7.37739 15.0561 7.47838 15.1263 7.59999C15.1965 7.7216 15.2335 7.85955 15.2335 7.99997C15.2335 8.1404 15.1965 8.27835 15.1263 8.39996C15.0561 8.52157 14.9551 8.62256 14.8335 8.69277L12.1503 10.2408L11.2063 13.8048C11.161 13.9753 11.0606 14.126 10.9208 14.2336C10.781 14.3411 10.6095 14.3994 10.4331 14.3994C10.2567 14.3994 10.0852 14.3411 9.94538 14.2336C9.80554 14.126 9.70517 13.9753 9.65989 13.8048L8.7167 10.24L6.03349 8.69277C5.91189 8.62256 5.81091 8.52157 5.7407 8.39996C5.67049 8.27835 5.63353 8.1404 5.63353 7.99997C5.63353 7.85955 5.67049 7.7216 5.7407 7.59999C5.81091 7.47838 5.91189 7.37739 6.03349 7.30718L8.7167 5.75917L9.6607 2.19518C9.70586 2.02464 9.80612 1.87381 9.94589 1.76617C10.0857 1.65852 10.2571 1.6001 10.4335 1.59998Z" fill="currentColor"/>
<path d="M5.39918 9.83429C5.24915 9.68426 5.04567 9.59998 4.83349 9.59998C4.62132 9.59998 4.41784 9.68426 4.26781 9.83429C4.11778 9.98432 4.03349 10.1878 4.03349 10.4V11.2H3.23349C3.02132 11.2 2.81784 11.2843 2.66781 11.4343C2.51778 11.5843 2.43349 11.7878 2.43349 12C2.43349 12.2121 2.51778 12.4156 2.66781 12.5657C2.81784 12.7157 3.02132 12.8 3.23349 12.8H4.03349V13.6C4.03349 13.8121 4.11778 14.0156 4.26781 14.1657C4.41784 14.3157 4.62132 14.4 4.83349 14.4C5.04567 14.4 5.24915 14.3157 5.39918 14.1657C5.54921 14.0156 5.63349 13.8121 5.63349 13.6V12.8H6.43349C6.64567 12.8 6.84915 12.7157 6.99918 12.5657C7.14921 12.4156 7.23349 12.2121 7.23349 12C7.23349 11.7878 7.14921 11.5843 6.99918 11.4343C6.84915 11.2843 6.64567 11.2 6.43349 11.2H5.63349V10.4C5.63349 10.1878 5.54921 9.98432 5.39918 9.83429Z" fill="currentColor"/>
<path d="M5.39918 1.83429C5.24915 1.68426 5.04567 1.59998 4.83349 1.59998C4.62132 1.59998 4.41784 1.68426 4.26781 1.83429C4.11778 1.98432 4.03349 2.1878 4.03349 2.39998V3.19998H3.23349C3.02132 3.19998 2.81784 3.28426 2.66781 3.43429C2.51778 3.58432 2.43349 3.7878 2.43349 3.99998C2.43349 4.21215 2.51778 4.41563 2.66781 4.56566C2.81784 4.71569 3.02132 4.79998 3.23349 4.79998H4.03349V5.59998C4.03349 5.81215 4.11778 6.01563 4.26781 6.16566C4.41784 6.31569 4.62132 6.39997 4.83349 6.39997C5.04567 6.39997 5.24915 6.31569 5.39918 6.16566C5.54921 6.01563 5.63349 5.81215 5.63349 5.59998V4.79998H6.43349C6.64567 4.79998 6.84915 4.71569 6.99918 4.56566C7.14921 4.41563 7.23349 4.21215 7.23349 3.99998C7.23349 3.7878 7.14921 3.58432 6.99918 3.43429C6.84915 3.28426 6.64567 3.19998 6.43349 3.19998H5.63349V2.39998C5.63349 2.1878 5.54921 1.98432 5.39918 1.83429Z" fill="currentColor"/>
</svg>
