<svg width="100%" height="100%" viewBox="0 0 21 20" fill="none" xmlns="http://www.w3.org/2000/svg">
<path d="M8.25002 18.3333H13.25C17.4167 18.3333 19.0834 16.6666 19.0834 12.5V7.49996C19.0834 3.33329 17.4167 1.66663 13.25 1.66663H8.25002C4.08335 1.66663 2.41669 3.33329 2.41669 7.49996V12.5C2.41669 16.6666 4.08335 18.3333 8.25002 18.3333Z" stroke="currentColor" stroke-width="1.5" stroke-linecap="round" stroke-linejoin="round"/>
<path d="M8.24998 8.33333C9.17045 8.33333 9.91665 7.58714 9.91665 6.66667C9.91665 5.74619 9.17045 5 8.24998 5C7.32951 5 6.58331 5.74619 6.58331 6.66667C6.58331 7.58714 7.32951 8.33333 8.24998 8.33333Z" stroke="currentColor" stroke-width="1.5" stroke-linecap="round" stroke-linejoin="round"/>
<path d="M2.97498 15.7917L7.08331 13.0333C7.74164 12.5917 8.69164 12.6417 9.28331 13.15L9.55831 13.3917C10.2083 13.95 11.2583 13.95 11.9083 13.3917L15.375 10.4167C16.025 9.85834 17.075 9.85834 17.725 10.4167L19.0833 11.5833" stroke="currentColor" stroke-width="1.5" stroke-linecap="round" stroke-linejoin="round"/>
</svg>
