<svg width="100%" height="100%" viewBox="0 0 17 17" fill="none" xmlns="http://www.w3.org/2000/svg">
<path d="M5.83696 8.04105C5.83696 6.56703 7.03121 5.3718 8.5048 5.3718C9.97839 5.3718 11.1733 6.56703 11.1733 8.04105C11.1733 9.51506 9.97839 10.7103 8.5048 10.7103C7.03121 10.7103 5.83696 9.51506 5.83696 8.04105ZM4.39443 8.04105C4.39443 10.3119 6.23464 12.1526 8.5048 12.1526C10.775 12.1526 12.6152 10.3119 12.6152 8.04105C12.6152 5.77023 10.775 3.92949 8.5048 3.92949C6.23464 3.92949 4.39443 5.77023 4.39443 8.04105ZM11.8173 3.76647C11.8172 3.9565 11.8735 4.1423 11.979 4.30035C12.0845 4.45841 12.2344 4.58162 12.4099 4.65442C12.5854 4.72721 12.7786 4.74632 12.9649 4.70932C13.1513 4.67232 13.3225 4.58087 13.4568 4.44655C13.5912 4.31222 13.6828 4.14105 13.7199 3.95468C13.7571 3.76831 13.7381 3.5751 13.6655 3.3995C13.5929 3.2239 13.4698 3.07379 13.3119 2.96814C13.154 2.8625 12.9683 2.80607 12.7783 2.806H12.7779C12.5232 2.80612 12.279 2.90733 12.0989 3.08742C11.9188 3.26751 11.8175 3.51173 11.8173 3.76647ZM5.27086 14.5586C4.49042 14.5231 4.06623 14.3931 3.78434 14.2832C3.41061 14.1377 3.14395 13.9643 2.86359 13.6843C2.58323 13.4042 2.40969 13.1377 2.26483 12.7639C2.15494 12.482 2.02495 12.0576 1.98947 11.2769C1.95066 10.4329 1.94291 10.1794 1.94291 8.04111C1.94291 5.90283 1.9513 5.64999 1.98947 4.80528C2.02501 4.02462 2.15597 3.60101 2.26483 3.31832C2.41033 2.94449 2.58362 2.67776 2.86359 2.39731C3.14357 2.11687 3.40997 1.94328 3.78434 1.79838C4.06611 1.68846 4.49042 1.55843 5.27086 1.52294C6.11463 1.48412 6.36809 1.47637 8.5048 1.47637C10.6415 1.47637 10.8952 1.48476 11.7397 1.52294C12.5201 1.55849 12.9436 1.68949 13.2262 1.79838C13.6 1.94328 13.8666 2.11726 14.147 2.39731C14.4273 2.67737 14.6002 2.94449 14.7457 3.31832C14.8556 3.60017 14.9856 4.02462 15.0211 4.80528C15.0599 5.64999 15.0676 5.90283 15.0676 8.04111C15.0676 10.1794 15.0599 10.4322 15.0211 11.2769C14.9856 12.0576 14.8549 12.4819 14.7457 12.7639C14.6002 13.1377 14.4269 13.4045 14.147 13.6843C13.867 13.9641 13.6 14.1377 13.2262 14.2832C12.9445 14.3931 12.5201 14.5232 11.7397 14.5586C10.8959 14.5975 10.6425 14.6052 8.5048 14.6052C6.36713 14.6052 6.11437 14.5975 5.27086 14.5586ZM5.20458 0.0824266C4.35242 0.121245 3.77012 0.256405 3.26159 0.454341C2.73494 0.658746 2.2891 0.932974 1.84359 1.37791C1.39807 1.82285 1.12463 2.26952 0.920284 2.79632C0.722405 3.30532 0.587284 3.88747 0.548477 4.73987C0.509029 5.59362 0.5 5.86657 0.5 8.04105C0.5 10.2155 0.509029 10.4885 0.548477 11.3422C0.587284 12.1947 0.722405 12.7768 0.920284 13.2858C1.12463 13.8123 1.39814 14.2594 1.84359 14.7042C2.28904 15.1489 2.73494 15.4228 3.26159 15.6278C3.77108 15.8257 4.35242 15.9608 5.20458 15.9997C6.05853 16.0385 6.33095 16.0482 8.5048 16.0482C10.6786 16.0482 10.9515 16.0391 11.805 15.9997C12.6572 15.9608 13.2392 15.8257 13.748 15.6278C14.2743 15.4228 14.7205 15.1491 15.166 14.7042C15.6115 14.2592 15.8844 13.8123 16.0893 13.2858C16.2872 12.7768 16.423 12.1946 16.4611 11.3422C16.4999 10.4878 16.509 10.2155 16.509 8.04105C16.509 5.86657 16.4999 5.59362 16.4611 4.73987C16.4223 3.88741 16.2872 3.305 16.0893 2.79632C15.8844 2.26984 15.6108 1.82356 15.166 1.37791C14.7212 0.932269 14.2743 0.658746 13.7486 0.454341C13.2392 0.256405 12.6572 0.120605 11.8057 0.0824266C10.9522 0.0436081 10.6793 0.0339355 8.50544 0.0339355C6.33159 0.0339355 6.05853 0.0429676 5.20458 0.0824266Z" fill="currentColor"/>
</svg>
