<svg width="100%" height="100%" viewBox="0 0 28 28" fill="none" xmlns="http://www.w3.org/2000/svg">
<path fill-rule="evenodd" clip-rule="evenodd" d="M19.1409 27.174C14.8832 25.9655 10.866 23.6851 7.51713 20.3362C4.16828 16.9874 1.88782 12.9701 0.67937 8.71248C0.672206 8.68724 0.665095 8.66222 0.658041 8.6374C0.461363 7.94538 0.308849 7.40875 0.306658 6.6729C0.304154 5.83187 0.578164 4.77821 0.990071 4.04495C1.69845 2.78393 3.21947 1.16786 4.53323 0.50336C5.66835 -0.0707814 7.00888 -0.0707818 8.14401 0.50336C9.26699 1.07136 10.5176 2.34278 11.2149 3.41512C12.0768 4.74091 12.0768 6.45007 11.2149 7.77585C10.9839 8.13111 10.6546 8.4598 10.2724 8.84136C10.1534 8.96018 10.0224 9.04603 10.1094 9.22721C10.9732 11.0263 12.1511 12.7137 13.6454 14.208C15.1396 15.7022 16.8271 16.8802 18.6261 17.7439C18.8137 17.834 18.8876 17.7055 19.012 17.5809C19.3935 17.1987 19.7222 16.8695 20.0775 16.6385C21.4033 15.7765 23.1124 15.7765 24.4382 16.6385C25.4819 17.317 26.7864 18.5951 27.35 19.7093C27.9241 20.8445 27.9241 22.185 27.35 23.3201C26.6855 24.6339 25.0694 26.1549 23.8084 26.8633C23.0751 27.2752 22.0215 27.5492 21.1804 27.5467C20.4446 27.5445 19.908 27.392 19.216 27.1953C19.1911 27.1882 19.1661 27.1811 19.1409 27.174Z" fill="currentColor"/>
</svg>
