<svg width="100%" height="100%" viewBox="0 0 16 17" fill="none" xmlns="http://www.w3.org/2000/svg">
<path d="M15.4777 13.3087C15.4777 13.5727 15.419 13.844 15.2943 14.108C15.1697 14.372 15.0083 14.6214 14.7957 14.856C14.4363 15.252 14.0403 15.538 13.593 15.7214C13.153 15.9047 12.6763 16 12.163 16C11.415 16 10.6157 15.824 9.77234 15.4647C8.92901 15.1054 8.08567 14.6214 7.24967 14.0127C6.40634 13.3967 5.60701 12.7147 4.84434 11.9594C4.08901 11.1967 3.40701 10.3974 2.79834 9.56137C2.19701 8.72537 1.71301 7.88937 1.36101 7.06071C1.00901 6.22471 0.833008 5.42537 0.833008 4.66271C0.833008 4.16404 0.921008 3.68737 1.09701 3.24737C1.27301 2.80004 1.55167 2.38937 1.94034 2.02271C2.40967 1.56071 2.92301 1.33337 3.46567 1.33337C3.67101 1.33337 3.87634 1.37737 4.05967 1.46537C4.25034 1.55337 4.41901 1.68537 4.55101 1.87604L6.25234 4.27404C6.38434 4.45737 6.47967 4.62604 6.54567 4.78737C6.61167 4.94137 6.64834 5.09537 6.64834 5.23471C6.64834 5.41071 6.59701 5.58671 6.49434 5.75537C6.39901 5.92404 6.25967 6.10004 6.08367 6.27604L5.52634 6.85537C5.44567 6.93604 5.40901 7.03137 5.40901 7.14871C5.40901 7.20737 5.41634 7.25871 5.43101 7.31737C5.45301 7.37604 5.47501 7.42004 5.48967 7.46404C5.62167 7.70604 5.84901 8.02137 6.17167 8.40271C6.50167 8.78404 6.85367 9.17271 7.23501 9.56137C7.63101 9.95004 8.01234 10.3094 8.40101 10.6394C8.78234 10.962 9.09767 11.182 9.34701 11.314C9.38367 11.3287 9.42767 11.3507 9.47901 11.3727C9.53767 11.3947 9.59634 11.402 9.66234 11.402C9.78701 11.402 9.88234 11.358 9.96301 11.2774L10.5203 10.7274C10.7037 10.544 10.8797 10.4047 11.0483 10.3167C11.217 10.214 11.3857 10.1627 11.569 10.1627C11.7083 10.1627 11.855 10.192 12.0163 10.258C12.1777 10.324 12.3463 10.4194 12.5297 10.544L14.957 12.2674C15.1477 12.3994 15.2797 12.5534 15.3603 12.7367C15.4337 12.92 15.4777 13.1034 15.4777 13.3087Z" stroke="currentColor" stroke-miterlimit="10"/>
</svg>
