<svg width="100%" height="100%" viewBox="0 0 17 14" fill="none" xmlns="http://www.w3.org/2000/svg">
<path d="M16.4421 1.93385C15.9137 2.16145 15.3582 2.31993 14.7894 2.40539C15.0553 2.35975 15.4467 1.88062 15.6024 1.68668C15.8391 1.39415 16.0195 1.06019 16.1343 0.701788C16.1343 0.675169 16.1609 0.637143 16.1343 0.618129C16.1209 0.610807 16.1059 0.60697 16.0907 0.60697C16.0754 0.60697 16.0604 0.610807 16.047 0.618129C15.4293 0.952925 14.7719 1.20845 14.0903 1.37866C14.0666 1.38593 14.0413 1.38658 14.0172 1.38055C13.9931 1.37452 13.9711 1.36204 13.9536 1.34444C13.9005 1.28121 13.8434 1.22151 13.7826 1.16571C13.5046 0.916429 13.1892 0.712401 12.848 0.561089C12.3873 0.371936 11.8897 0.290017 11.3928 0.321521C10.9107 0.351998 10.4399 0.481437 10.0099 0.701788C9.5864 0.934102 9.21422 1.24971 8.91569 1.62964C8.60167 2.02069 8.37496 2.47451 8.25081 2.96058C8.14844 3.42292 8.13682 3.90078 8.21662 4.36756C8.21662 4.44742 8.21662 4.45883 8.14823 4.44742C5.43933 4.04814 3.21675 3.08606 1.40068 1.02121C1.3209 0.929948 1.27911 0.929948 1.21452 1.02121C0.424265 2.22286 0.807994 4.12419 1.79581 5.06345C1.92879 5.18894 2.06556 5.31063 2.20993 5.42471C1.75703 5.39252 1.31518 5.26968 0.910575 5.06345C0.834589 5.01402 0.792796 5.04064 0.788997 5.1319C0.778227 5.25843 0.778227 5.38564 0.788997 5.51217C0.868272 6.11854 1.10703 6.69296 1.48085 7.17669C1.85467 7.66041 2.35014 8.03609 2.9166 8.2653C3.05469 8.3245 3.19858 8.36911 3.34592 8.3984C2.92664 8.48102 2.49662 8.49386 2.07316 8.43642C1.98198 8.41741 1.94778 8.46684 1.98198 8.55431C2.54047 10.0754 3.75245 10.5393 4.64148 10.7979C4.76306 10.8169 4.88464 10.8169 5.02141 10.8473C5.02141 10.8473 5.02141 10.8473 4.99862 10.8701C4.73646 11.3493 3.67646 11.6725 3.19015 11.8398C2.30251 12.1589 1.35612 12.2809 0.416666 12.1973C0.268494 12.1744 0.2343 12.1783 0.196307 12.1973C0.158314 12.2163 0.196307 12.2581 0.238099 12.2961C0.428064 12.4216 0.618029 12.5319 0.815592 12.6384C1.40374 12.9595 2.02553 13.2145 2.66965 13.3989C6.00543 14.3192 9.75913 13.6423 12.2629 11.1515C14.2309 9.19696 14.9224 6.50086 14.9224 3.80097C14.9224 3.69829 15.0477 3.63745 15.1199 3.58421C15.6178 3.19592 16.0568 2.73735 16.4231 2.22286C16.4865 2.14616 16.5191 2.04852 16.5143 1.94906C16.5143 1.89202 16.5143 1.90343 16.4421 1.93385Z" fill="currentColor"/>
</svg>
